<svg xmlns="http://www.w3.org/2000/svg" viewBox="0 0 779.5 482.1"><path d="M746.5 155.5c0 83.6-67.8 151.4-151.4 151.4s-151.4-67.8-151.4-151.4S511.5 4.1 595.1 4.1s151.4 67.8 151.4 151.4z" fill="#ff0a10" stroke="#ec2024"/><path d="M16.7 477.6s-19.4-18.1-10.3-47.9c0 0 238.1-131.5 768.8-126.5 0 0-511.4 5-758.5 174.4z" fill="#060606" stroke="#221f1f"/><g fill="#333"><path d="M492.426 124.93c-2.9-.5-6 .3-8.9.8-2.1.4-4.4.7-6.3 1.8-1.8 1.1-3.2 2.8-4.5 4.5-1.8 2.3-4.5 7.6-4.5 7.6-.9 1.5-.9 3.4-1.3 5.2-.4 1.6-.9 3.1-1 4.8-.1 2.4.7 6.4.8 7.2l.6 6.3c0 2.4-.6 4.7-.5 7.1.1 2.6 1.4 5.1 1.3 7.7l-.2 5.7c-.2 1.9-.3 3.9-1.2 5.6l-2.3 4s-3.8 7-6.3 10.1c-.6.7-1.9 1.8-1.9 1.8-1.1 1-1.7 2.5-2.4 3.7-.2.3-.5.9-.5.9-3.4 6.2-5.6 8.8-9.1 12.4-2.3 3.2-6.1 10.2-6.1 10.2-.4.7-.6 1.5-.7 2.3 0 .5.2 1.5.2 1.5.3 2.1.9 4.2 1.6 6.3 1.2 3.5 4.5 10 4.5 10 1.2 2.7 2.9 5.3 4.4 7.9l3.9 7.3 2 4.1c.8 1.6 1.7 4 2.7 5.8 1.1 1.8 2.1 2.9 3.5 5.1 1.5 2.1 4.3 3.3 5.2 5.8.8 2.4-.5 5.1-.6 7.7 0 2 0 3.9.2 5.9.2 2.4.7 4.9 1.2 7.3 1 4.6 2.5 9.1 3.6 13.8l7.5 30.9c.2.9.6 1.9.7 2.8.2 1.7.1 5.1.1 5.1 0 1.4-.6 2.8-.2 4.2.2.6 1.1 1.4 1.1 1.4.7.8 1.3 1 2 2.5.7 1.6 1.1 4.7 1.4 7.1.4 2.6.5 5.2.7 7.8.4 4 1 12.1 1 12.1.1.7-.1 1.4 0 2 .1.9.5 1.8.8 2.6.4.9 1.3 2.6 1.3 2.6.4.8 1.4 1.3 1.5 2.2.1.8-1 2.1-1 2.1-.2.5-1.1.4-1.4.8-.9 1.1-1.6 3.9-1.6 3.9-1 2.3-2.8 4.1-4.2 6.2l-1.7 2.3c-.3.3 0 1 .4 1.2.7.5 1.8 0 2.6-.1 2.1-.2 4.2-.6 6.3-1.2 1.9-.6 5.5-2.2 5.5-2.2 1.4-.6 3-1.2 3.9-2.4.4-.7.4-2.3.4-2.3.2-1.2.5-2.4.8-3.5.3-1.2 1.1-3.5 1.1-3.5.3-.9 1.7-1.4 2.5-1 .6.3.7 1.8.7 1.8.1.4.7.4 1.1.3s1.1-.7 1.1-.7c.9-.5-.4-2-.4-3 0-.5.3-1.4.3-1.4.3-1.5 2.2-2.2 3-3.5.7-1.1 1.6-3.4 1.6-3.4.6-1.2-.7-2.6-1.2-3.9s-1.9-3.6-1.9-3.6c-.7-1.4-1.9-3.8-1.9-4.2s-.7-3.9-1-5.9c-.5-3.4-.7-6.8-1.3-10.2-.3-1.7-1.2-5.1-1.2-5.1-.5-2.1-.5-4.2-.6-6.4-.1-1.2 0-3.5 0-3.5 0-5.3-1.3-10.5-1.2-15.8.1-7.6 2-15.1 2.3-22.7l.2-4.2c0-.4.7.1 1 .3.9.6 1.4 1.7 1.9 2.6l1.8 3.6c3.1 6.3 6.5 12.6 9.4 19l3.4 7.6 6.9 16.2s1 3 1.7 4.4c.8 1.4 2.1 2.5 2.7 4 .8 1.8.8 3.9 1.2 5.9s.9 4 1.2 6.1c.2 1.5 0 3.1.3 4.6 0 0 1.1 4.8 1.5 7.2s.5 5 1 7.4l1.7 8c1 5.7-1.2 12.6 2.4 17.1 0 0 .9 1.5 1.6 2 .8.5 1.8.7 2.7.8 0 0 3.2-.5 4.2.5.6.5.3 1.6.4 2.3 0 0 .1 1.6.4 2.3.1.3.3.5.5.7.4.3 1 .3 1.4.3s.7-.6.6-1l-.7-3.6c-.1-.3.1-.8.4-.9 1-.4 2 .7 2.8 1.2 1.3.9 2.6 2.5 3.4 3.2s1.5 2.8 2.3 4.2c.8 1.2 1.6 2.4 2.5 3.5.5.6 1 1.3 1.7 1.8.8.6 2 1 2.7 1.2s4.3.1 6.5 0c0 0 6 0 8.9-.4 1.4-.2 3.5.4 4-.9l.2-.5c.2-.6-.9-1.3-.9-1.7s-2.3-1.5-3.5-2.2l-5.5-3.2c-1.4-.9-2.7-2.1-4-3-1.1-.8-2.4-1.2-3.2-2.2-1.1-1.5-1.7-3.4-1.9-5.3l-.4-4.2c-.3-2.8-1.4-5.6-2-8.1s-.4-5-1.6-7.1c0 0-2.5-3.8-3.3-6-1.3-3.3-1.6-6.8-2.5-10.2l-1.9-7c-.7-2.5-2.3-4.9-2.1-7.5 0-.5.5-1 .6-1.5l.2-1.1c.2-.9-1.2-2-1.2-2.5s-1.2-1.4-1.6-2.2c-1.6-3.5-1.5-7.6-2.3-11.3-.4-1.9-1.4-3.8-1.4-5.8 0 0 .1-2 0-2.9-.5-5.9-2.8-17.5-2.8-17.5-.1-.3.8 0 1-.2s.2-.9.2-.9c.1-.5 0-1.1.1-1.6.4-1.4 2-4 2-4 1.6-3.2 1.5-9.5 1.5-10s.4-1.9.3-2.8c0 0-.8-5.1-1-7.7-.2-2.3-.2-4.6-.2-6.9-.1-3.8-.2-7.6-.1-11.3.1-3.4.7-6.9.8-10.3.1-2.9.1-8.7.1-8.7 0-2.8-.4-5.6-.7-8.4-.4-3.6-1.1-7.2-1.4-10.8-.6-7.2-2.9-14.6-1-21.5.2-.8 1-1.4 1.4-2.1 0 0 1.5-2 1.6-3.1.1-.7-.2-1.5-.5-2.1l-1.1-2c-.8-1.5-2.3-3.5-2.6-4.5s-2.2-7.4-2.2-7.8-.8-4.7-1.9-6.7c-1-1.8-2.4-3.5-4.2-4.6-1-.6-3.2-1-3.2-1l-2.7-1.3c-.6-.3-1.4-.2-2-.5-1.2-.5-3.1-2.2-3.1-2.2-1.4-1-1.6-3-2.1-4.5-1.1-3.3-1.2-6.8-1.9-10.1-.8-3.9-1.5-7.7-2.5-11.5-.9-3.5-3.2-10.3-3.2-10.3-.9-3-2.4-5.8-3.9-8.5s-5.1-7.7-5.1-7.7c-1.2-1.8-2.7-3.4-4.3-4.7-1.3-1-4.2-2.3-4.2-2.3-1.8-1.3-3.7-1.6-5.7-2h0zm-21.9 97.4c1.7.8.9 5.4.9 5.4.4 2.2 1.3 4.2 1.6 6.4.4 3.9-.2 7.9-.2 11.9v11.3c0 2-1.7 3.8-2 5.8-.1.5.1 1.4.1 1.4.1 1.1-2.6.6-3.1.4-.6-.3-2.4-.1-3.6-.4-.3 0-.6-.1-.9-.2-.6-.4-1.5-1.6-1.5-1.6-1.1-1.2-2.9-3.4-2.9-3.8s-2.1-4.7-2.8-7.2c-.5-1.8-.9-4.6-.9-5.4s-1-3.6-1.5-5.4l-1.1-3.8c-.2-.5.5-1 .9-1.4 1.1-1.3 3.7-3.3 3.7-3.3 1.8-1.6 3.2-3.6 5.1-5.1 1.5-1.2 5.1-2.9 5.1-2.9.9-.7 1.9-2.6 3.1-2.1zm61.3 17.3c.4-.1.3.4.4.6.7 1.8.8 5.2.9 5.6s1 5.9.9 6.4.2 3.5.6 5.3l1.1 6.1c.7 3.5 1.1 7 1.7 10.4.4 2.7.9 5.4 1.4 8.1.4 2.2 1.1 4.3 1.3 6.4.2 2 .1 6.1.1 6.1 0 1.1.1 2.9-.1 3.3-.1.4-.4 2.1-1 2.9l-1.4 1.9c-.7.9-.3-2.2-.6-3.3-.2-.8-.9-2.3-.9-2.3-.3-.7-.7-1.4-.9-2.1s-.2-2.1-.2-2.1c-.1-.6.2-1.2 0-1.7-.3-1-1.6-2.8-1.6-2.8-1.4-2.3 0-5.5-.3-8.2-.2-1.9-.8-3.8-1.1-5.7l-.6-4c-.2-1.4-.1-3.7-.2-4.2s-.7-2.6-.7-3.9l-.1-4.2c0-.8.5-1.6.4-2.4-.2-1.1-1.5-3.1-1.5-3.1-.4-.9 1.4-1.4 1.7-2.3s.1-3 .1-3c0-.6.7-.9.9-1.5.4-1.4.1-4.5.1-4.5-.3-.5-.8-1.7-.4-1.8zM215.2 406.7c-1.8-.6-2.2-.6-4.2-.6-1.4.1-2.3 0-2.5-.2-.2-.1-.4-.8-.4-1.4l-.7-3.9c-.1-.1-.2-1.3-.2-2.8v-2.6h-.7c-1.2 0-1.4-.6-1.5-3.8-.1-2.2-.2-3.1-.7-4.7-.8-2.4-.8-3.4-.2-4.7.2-.5.5-1.3.6-1.8.1-.8.1-.9-1.5-2.5l-1.6-1.7.1-3.5.3-4.8a8.88 8.88 0 0 0-.1-2.8c-.2-1.2-.4-1.6-1-2.4-.4-.5-.8-.9-.8-.9 0-.1-.2-1.4-.8-7.2l-.6-4.7c-.1-.4-.2-1.9-.3-3.3-.2-2.5-.2-2.7-1-4-1.1-1.9-1-1.3-1.6-7.7-.2-1.8-.7-5.4-1.3-8-1.1-5.2-1.3-6.9-2.4-14.9-.6-4.3-.9-6.3-1.7-9.1-1.1-4-3.3-13.5-3.3-13.9 0-.6-.4-.9-.7-.7-.4.3-.1 9.1.4 14.4l1.4 16.9c.4 7.8.7 12 .9 12.9.1.5.7 2.6 1.2 4.7.8 2.8 1.1 4.6 1.4 6.9.2 1.7.7 5.4 1.1 8.2.7 4.9.8 5.2.7 9.1l-.1 4 .9 2.7.9 2.7-.1 3.3c-.1 2.8-.2 3.4-.5 4.2-.2.5-.4 1.1-.4 1.3s.2 1.1.4 1.9c.3 1.3.3 2.1.1 6.5-.1 2.8-.2 5.3-.1 5.5.1.4 0 .6-.6 1.2l-.8.7-.3 4.1c-.2 3.1-.4 4.3-.8 5.1l-.4 1-2.8-.1c-2.5-.1-2.8 0-2.9.3-.1.2-.4.7-.9 1l-.7.7h-5.6c-3.1 0-6.9-.1-8.5-.1l-2.9-.1-.4-.7c-.3-.5-.4-.9-.3-2 .2-2.1 1-3.5 3-5.2 1.9-1.5 4.8-4.5 5.1-5.2.1-.3.2-1 .1-2-.1-1.3-.2-1.5-.6-1.6-1.4-.3-1.7-4.6-.8-10.8l.3-2.3-.8-1.5c-.5-.8-1.3-2.7-1.9-4.3l-1-2.9v-3.5-3.5l-1.1-3.8c-1-3.6-1.1-3.9-1.1-6.5 0-2 .1-2.9.3-3.8.6-1.9.5-2.8-.6-4.4l-.9-1.4-.6-4-1-7-.8-6.8c-.2-2.1-.7-5.1-1-6.7-.8-4.1-2.6-11.7-3.1-12.6-.2-.4-.8-2.9-1.4-5.5l-2.5-10.9c-.2-.6-.3-.8-.7-.8-.3 0-.7.2-.9.5s-.6.7-.9 1.1c-.4.5-.7.6-1.5.7-.8 0-1.2.2-1.6.6-1.9 1.9-2.4 2.1-3.9 2.2-1 .1-1.9 0-2.8-.3-1.2-.3-1.5-.5-2.9-2-2.4-2.6-2.3-2.3-2.3-6.9 0-3.7 0-4-.4-4.4-.4-.3-.4-.7-.5-20.9-.1-23.3 0-24.4 1.8-41.7l.8-9.2.7-8.2c.2-1.7.4-3.8.4-4.7.8-10.4 1-11.6 2.1-13.2.9-1.2 5.4-5.2 7.3-6.5l5.2-3.2c5.2-3.1 6.5-4 8.2-5.7l1.5-1.5-.2-2.3-.2-2.3-1.1-1c-1.3-1.2-1.9-2.2-2.1-3.4-.2-1.1-.4-1.7-1.3-3.8-1.4-3.1-1.8-5-2-9.7-.3-6.1.2-8.1 2.2-10.6.5-.6 1-1.3 1-1.6.3-1 .9-1.8 2.9-3.6 2.3-2.1 3.4-2.6 6.3-3.1 2-.3 2.4-.3 5.2 0 4.1.4 5 .7 6.2 2 .5.6 1.2 1.2 1.5 1.4s1.4 1.6 2.5 3l2.1 2.7c.5.3 1.2 1.6 1.2 2.1 0 .3.2.8.4 1.2s.6 1.8.9 3.2c.5 2.5.5 2.6.2 4.2-.4 2-1.6 5.6-2.1 6.4-.3.4-.4 1.2-.5 2.7-.1 2.1-.1 2.2-.9 3-1.2 1.4-1.5 1.9-1.5 2.8 0 .7.1 1 .9 1.7 2.7 2.5 4.3 3.4 12.7 6.2 7.8 2.6 16.2 5.7 17.1 6.3 1.2.8 2 2.2 2.4 4.4.8 4.6 1.4 6.5 4.3 15.2 4.7 13.8 6 18 6.2 19.9l.7 7.6.5 6.6c.2 1.2-.3 11.1-.7 14.9l-.8 6.8c-.9 8.2-2.9 23-3.2 23.3-.1.1-.3.2-.6.4-.3.1-.5.3-.4.5.1.4-.4 4.2-.6 4.9-.2.5-.5.9-1.1 1.2-1 .6-2.9 2.5-2.9 2.9 0 .1-.3.6-.7 1-.5.6-1.3 1.1-2.7 1.6l-1.9.8v3.7c0 11.7 1.3 28.9 3 39.2 1 6.3 1.1 6.6 1.9 8s2.1 5.5 3.2 9.6c.8 3.2 1.1 8.2 1.2 20.6 0 9.7.1 11.9.4 14 .2 1.4.5 4.8.7 7.5l.4 5-.9.4c-.9.4-.9.5-.9 1.2 0 .8.1 1 2 2.8 1.6 1.6 2.2 2.4 3.2 4.2 1.2 2.2 1.8 4.2 1.5 5.1-.2.6-1.5 1.2-3.6 1.8-1.7.5-2.5.5-6.3.6l-4.4.1-2-.7z"/><path d="M617.2 440.3c-2.4-.3-7.1-1.3-7.6-1.6-.3-.2-.7-.8-1-1.4-.4-.9-.4-1.1-.2-2.3.3-1.2.4-1.4 4.6-5.6 4.2-4.3 6.3-7 7.4-9.2.5-1 .5-1.5.5-3.6 0-1.7-.1-2.6-.3-2.7s-1-.2-2-.3c-.9 0-1.7-.1-1.8-.2-.3-.3-1.1-8.6-1.4-14.1l-.4-5.5c-.1-.2-.5-5.1-1.4-16-.2-2.5-.7-6.8-1.2-9.7s-1-6.3-1.1-7.5c-.5-4.4-.8-5.5-3.5-14l-7.9-23.3c-.1-.1-.2 1.8-.3 4.2s-.2 5.4-.4 6.5l-.4 4.7c-.1 1.4-.5 5.3-.8 8.6s-.7 8.6-.8 11.8l-.9 30.2c-.1 4.9-.3 9.3-.4 9.8s-.4 1-.6 1.1c-1.2.7-1.3.9-2 4.5-.4 2-.8 3.9-.8 4.3 0 .9-.4 1.3-2 1.9-.7.3-1.8.7-2.5 1.1-1.2.6-1.4.6-5 .6-2.6 0-4.1-.1-4.7-.3-.9-.3-1-.3-2.1.2-.7.3-2.1 1.2-3.2 2.1-3.5 2.6-3.9 2.7-11.1 3.6-5.2.6-6.4.5-9.2-.5-1.3-.5-2-1.7-2.1-3.5-.1-1.2 0-1.3.8-2.1.9-.7 7.4-4.1 12-6.1a19.76 19.76 0 0 0 2.7-1.4c.3-.2 1.2-1.4 2-2.6s1.8-2.6 2.3-3.2c.4-.5.8-1.2.7-1.4 0-.2.1-1.3.4-2.4 2.2-9.3 2.9-12.6 3.2-14.7.5-3.2 1.9-14.5 2-16.5.2-1.7-.4-10.8-.9-14.3-.2-1.2-.8-5.5-1.3-9.6s-1.4-10.3-1.9-13.8c-1.3-9.6-3.4-21.5-4.9-28.6l-1.3-6.3-.5-7.4c-.5-7.5-.7-16.7-.4-17.8.2-.5 0-.7-1.4-1.7-2.4-1.7-5-5.5-6-8.6l-.6-1.8-.2-13.6c-.3-20 .1-30.2 1.8-42.4 1.8-12.6 2.1-14.1 3.9-15.7 1.2-1.1 2.7-2.1 8-5.3 4.9-2.9 6.5-4.2 9.2-7.5 1.7-2.2 2.1-3 2.1-5 0-1.3-.4-2.2-1.5-3.8-1-1.3-2.1-3.6-2.4-4.8-.1-.3-.2-.7-.3-.8-.5-.6-1.2-3.9-1.8-8.7l-1-7.6c-.5-3.2-.5-6.1.1-8 .8-2.5 3.3-5.3 6.1-7 2-1.2 3.3-1.5 8.6-1.6l4.7-.1 1.9.8c4.4 1.9 4.9 2.2 6.2 3.6 2.9 3.1 3.5 4.6 3.8 9.2.2 2.4.3 3.3.6 3.5.3.3.3.8.3 2.9-.1 3.2-.6 5-2.2 8.2l-1.1 2.3v2.3 2.3l2.4 2.5c1.3 1.4 3.1 3.3 3.9 4.3l1.5 1.8 6 1.8c9.4 2.9 10.6 3.3 13.4 4.7 2.2 1.1 2.7 1.4 3.5 2.4.5.6 1 1.5 1.2 1.9.5 1.1 2.7 12.7 3.3 16.9 1.3 10.6 2.3 20.2 2.4 22.9 0 1.7.2 3.7.3 4.6.3 1.7.3 5.4.1 6-.1.2-.3 2-.6 3.9s-.6 3.9-.8 4.2c-.8 1.6-8.6 13.1-10.1 15l-.7.9.1 2.2c.1 1.2.7 6.1 1.4 10.8 1.1 7.5 1.3 9.3 1.5 14 .1 2.9.4 7.3.7 9.6l.5 4.2-.9.3c-1 .4-1.1.8-1.5 4-.5 3.9-.2 7.6.9 10.8.2.7.6 2.1.7 3.2l4 23.5 1.5 8.9c.4 2.6 1.1 5.8 1.4 7 1.6 5.5 1.6 5.2 1.6 12.9l-.2 17.2-.2 21.9v11.7l.7 2.1c.5 1.6.7 2.8.9 5.4.1 1.8.2 3.7.1 4.3-.2 1.3-1.1 2.6-2.6 3.6l-1.7 1.1c-.3.2-.9.4-1.4.4-.8 0-1 .2-2.3 1.8-1.7 2.2-3.5 3.9-4.7 4.7-1 .6-4 1.6-7.2 2.5-2 1.2-4.7 1.5-6.2 1.3zm-317.7-5c-.3-.1-1.1-1-1.8-2-1.1-1.4-1.6-1.9-2.7-2.6-1.7-1-2.4-1.7-2.9-2.9-.5-1.4-.5-3.9.1-5.6.3-.9.4-1.4.2-1.4-.4-.1-1.1-.9-1.6-1.9s-.5-1.1-.6-7.8c-.2-7.9.2-15.4 1.1-21.1 1.5-10.2 1.7-12.1 1.7-15.5 0-4.2-.5-17.6-.7-20.5 0-.5-.1-1.8-.2-2.8s-.2-2.2-.2-2.7c-.1-.8-.4-5.5-.6-7.8-.1-.7-.2-2.1-.3-3l-.5-4.7-.4-3.7c-.1-.4-.2-2.1-.4-3.8l-.4-3.8c-.1-.8-.5-4.9-1.1-10.9-.3-2.6-1.1-8-1.7-10.6-.7-3.3-1.7-6.6-2.1-7-.1-.1-.2 2.4-.3 5.6l-1.3 40.1c-.3 7.8-.4 26.5-.2 29.3l.6 7.7c.1.9.3 2.6.5 3.6.2 1.1 1.1 5.1 1.8 8.8 2.3 10.9 2.3 11.9 1.4 24-.4 5.5-.4 5.7-.9 6.2l-.5.5.5.8c.7 1.1.8 1.5.7 3.8-.2 3.3-1.1 4.9-3 5.1-1.4.2-1.6.4-1.8 2.3-.3 1.9-.4 2.3-1 2.6-.2.1-1.7.5-3.4.9-2.8.6-3.3.7-8.2.7l-5.2.1-.9-.7c-1-.9-1.5-2.3-1.5-4.2 0-1.1.1-1.4 1.1-3.1 2-3.5 3.9-7.4 3.7-7.7-.1-.1-.9-.3-1.8-.3-3.2-.2-5.5-1.4-5.7-3.1-.1-.4-.3-3.6-.4-7.1l-.9-17.8-1-19.4c-.5-9.1-.6-10.3-1.7-24.1l-1-11.3c-.4-2.5-2.8-12.6-3.7-15.8-1-3.5-2.6-11.3-4.8-23.3-.6-3-.5-3-1.3-3.1-1.1-.2-1.8-.5-1.9-.9-.1-.3.1-2.9.6-5.7.2-1 .5-3 .7-4.6l.5-3.4c.1-.4 0-.7-.3-.9-.7-.6-2.2-3.1-4.4-7-2.4-4.4-2.4-4.3-3.1-13.2l-1.7-20c-.4-2.1-.8-9.8-1-17-.1-8-.2-6.9 1.8-20.6l.8-5.7c1.6-11 2.3-14 3.7-16.8 1.1-2.2 2.3-3 7.1-4.8 5.9-2.2 15.9-6.4 17.2-7.2.5-.3 1.1-1.1 1.8-2.1.5-.9 1.8-2.5 2.8-3.7 1-1.1 2-2.3 2.1-2.7s.3-2 .4-3.6l.1-3-.8-1.3c-.5-.7-.9-1.6-1-2-.1-.5-.5-.9-1.1-1.4-1.1-.8-1.9-1.8-2.1-2.7s-.5-3.7-.6-5.3c-.3-3.9-.5-5-.8-5.7-.6-1.6-.4-9.2.4-11.7.3-1 .6-1.4 2.6-3.4a43.83 43.83 0 0 1 3.8-3.3c1.3-.9 1.7-1 2.5-1 .6 0 1.3-.2 2-.5 3.1-1.6 5.6-2.1 7.4-1.7.7.2 1.7.4 2.3.4 2.2.3 4.6.8 5.3 1.1.8.4 6.1 5.5 6.6 6.5.5.8.5.7.6 10.1l.1 4.2.6.9.6.9-.3 3.2c-.4 5-.6 5.6-2.4 8.1-.6.8-1.1 1.7-1.2 2.1-.1.3 0 1.5.2 2.5.3 1.5.5 2.2 1.3 3.5a18.37 18.37 0 0 0 4.5 5.1c1.3 1 8.1 4 10.7 4.7 1 .3 2.7.7 3.7 1 11.3 3.1 11.6 3.2 12.8 4.5.9.9 1 1.1 1.4 2.9 1.1 4.7 1.8 12.1 2.9 30.7.8 13.9.9 15.5.8 27.9-.1 12.9-.1 13.6-1.2 20.4-1.4 9.1-2.9 13.6-5.8 17.8-.6.8-1.6 2.3-2.2 3.4l-1.2 1.9.5 5.4c.3 3 .5 6.5.5 7.8v2.3h-.6c-.3 0-1.1.1-1.6.2l-1 .2v4c.1 7.4-.2 14-.8 17.9-.3 1.9-.6 4.8-.7 6.4l-1.2 14c-.8 8.8-1 13.6-1.2 33.6v37.3c.1 8.9.1 11.7-.1 12-.3.6-1.5 1.1-4 1.8-3.1.9-3.2 1.2-.4 5.2 2.4 3.3 3.5 5.4 3.7 7 .2 1.3-.1 1.7-1.8 3-1.8 1.4-2.8 1.7-5.4 2.1-2.7.1-9.4.2-10.2-.1zM295 190.2l.9-4.4c.8-4.8 2.6-18 2.5-18.1l-2 2.9c-1.1 1.6-2.2 3.1-2.5 3.3-.5.4-.5.4-1.4-.2-.5-.3-1.6-1.2-2.6-2.1l-1.7-1.5-1.6 1.8-1.6 1.8 1.3 1.8c.7 1 1.5 2.3 1.7 2.8.2.6 1 2.2 1.7 3.7 1.9 4 3.6 8.1 4.1 9.6.2.7.4 1.2.5 1.1.1.1.4-1.1.7-2.5zm-17.1-2c0-1.2.9-5.5 1.8-8.9.4-1.5.9-3.3 1-4.1.3-1.3.3-1.4-.3-2.2-.3-.5-.7-1.2-.8-1.5s-.3-.6-.4-.6-1.2 1.2-2.5 2.6c-1.4 1.6-2.5 2.6-2.7 2.5-.2 0-.6-.6-.9-1.2-.7-1.3-1-1.7-1-1.2 0 1 3.5 11.6 4.9 14.6.5 1.3.9 1.3.9 0zm1.4-18.7c1.1-1.3 2-2.5 2-2.8.1-.4-.5-1.1-4.7-5.3-2.7-2.7-4.9-4.8-5-4.8-.1.1-.2.5-.3.9-.1.6-.5 1.2-1.2 2-1.2 1.4-1.2.9 0 5.5.4 1.7.9 3.6 1 4.3s.8 2.4 1.4 3.7l1.2 2.5 1.8-1.8 3.8-4.2zm16.4 1.3c2.8-4 2.9-4.3 3.3-8 .5-4.5.5-4.4-.6-5.7-.5-.6-1-1.1-1.1-1.1s-2.3 2-4.9 4.5-5.1 4.8-5.6 5.2c-.8.7-.8.8-.5 1.3.3.6 4.6 4.9 6 6 .5.4 1.1.7 1.2.7.1-.1 1.1-1.4 2.2-2.9z"/></g><path d="M433.1 471.1c-.4-.1-2.4-.4-4.5-.6-3.4-.5-4.1-.6-6.1-1.6-1.2-.6-3.4-2-4.9-3.1-3.4-2.5-3.4-2.5-7.4-3.6-4.1-1.2-6-2-7-3.1-.7-.8-.8-1-.9-3.4-.1-2.8.3-5 1.3-6.5.3-.5.5-.9.5-1s-.5-.2-1.1-.3c-1.6-.3-1.8-.6-1.5-2.5.3-2.1.1-4.9-.6-7.2-.5-1.8-.5-2.2-.4-10.9.1-6.5.1-11.7-.2-18.5-.4-9.2-.6-44.6-.3-45.2.1-.1 0-5.3-.1-11.5-.2-8.6-.4-12.6-.9-17.1-.4-3.2-.7-6.5-.8-7.3s-.7-3.6-1.3-6.2c-.7-2.6-1.2-5-1.2-5.3 0-.2-.1-.5-.2-.6s-.2.3-.1.8-.1 2.4-.4 4.1l-1.6 9c-.1 1-.4 2.4-.5 3.2-.3 2-2.8 11.6-5.3 20.3l-2.4 8.6c-.2.8-1.7 6.2-3.3 12.1l-4.5 17.1c-1.4 8.1-2.2 13-2.6 16.8-.2 2.5-.6 6.1-.8 7.9s-.4 6.6-.4 10.5l-.2 14.6c-.2 6.8-.2 7.5-.7 7.8-.4.3-.5.7-.5 3.9 0 2.2-.1 3.8-.3 4.2-.2.3-.8 1.1-1.4 1.6-.6.6-2 2-3 3.2l-1.9 2.2-1.4-.1c-1.4 0-1.4 0-3.1 1.5-2.6 2.4-5.2 4.1-6.7 4.4s-4.9.2-9.1-.4l-4.2-.5c-2.5-.2-3.2-.7-3.9-2.3-.5-1.1-.6-1.7-.5-2.8.2-1.7.6-2.5 2.6-5l2.7-3.4c.7-.8 2.2-2.7 3.4-4.1 2.2-2.6 3.9-5.5 3.6-5.9-.1-.1-.8-.4-1.6-.6s-1.5-.4-1.6-.5.1-1.6.3-3.5c.5-4.3.6-25.2.2-32-.2-2.8-.4-9.4-.5-14.6-.2-10.1-.2-9.4 1.2-23.4 1.1-11.2 1.5-16.4 1.7-27.9.1-6.7.5-16 .8-19.5l.1-1.7-.9-.4c-.5-.2-1.9-1.1-3.1-2.1-2.6-2-3.6-3.6-4-6.7-.3-2.1-.4-8.6-.1-12.3l.2-2.4-1.1-.2c-.6-.1-1.5-.4-2-.6l-.9-.4V282l-.2-29.8c-.2-15.2.1-29.6.7-38.5l.4-7c.3-6.9.7-12 1.4-16.9l1.2-9.3c.8-6.6 1.7-13.2 2.3-14.4.9-1.6 3.9-2.6 14.8-7.5 8.6-3.6 9.8-2.7 14.7-5.8 7-4.4 7.6-4.8 8-5.3.2-.3.5-1.6.7-3.1.3-2.2.3-2.8 0-3.6-.5-1.4-1.3-2.4-1.8-2.4-.3 0-1-.7-1.8-1.7-1.1-1.4-1.4-2.2-2-4.3-1-3.5-1.3-7.3-.6-8.3.5-.8.6-1.1.9-8.5.3-7.2.8-8.7 3.3-11.9 1.4-1.7 4.1-3.9 5.2-4.1.4-.1 1.8-.6 3.2-1.1l2.5-.9 4.4.2c7.9.3 10.5 1.3 14.9 5.7 3.7 3.7 4.3 5 4.4 8.4 0 1.3-.2 4-.3 6-.4 3.6-.3 3.6.2 4.6.6 1 .6 1.2.4 4.8-.3 5.9-1.3 9.2-2.7 9.2-.7 0-1 .7-1.4 3.5-.5 3.3-.6 6.3-.3 7.3s2.3 2.9 5.5 5.4c1.7 1.3 3 .9 12.1 4.3 5.5 2.1 12.3 3.8 16 6 3.8 2.6 3.4 2 4 3.1s4.6 14 4.8 15.9l1.2 8.9a51.74 51.74 0 0 0 .4 2.9c.1.6.3 2.3.5 3.9l.7 4.7c.7 5.1 1.5 20.8 2 40l.7 24.9.4 19.2.2 9.9-.8.3c-.4.2-1.5.3-2.3.2-1.2-.1-1.6 0-1.8.3-.1.2-.3 1.8-.4 3.4-.1 2-.3 3.5-.7 4.4-.3.8-.8 2.6-1 4-.9 4.9-1 5.1-3.2 7.8-2.8 3.5-3.6 4.2-7.3 6.5-1.8 1.1-3.3 2.1-3.4 2.2s-.1 3.6.1 7.7c.4 9.2-.1 34-.7 39.1l-.8 6.3c-.6 4.9-1.1 8.2-1.7 11.4-.3 1.6-.7 4.1-.9 5.4-.2 1.4-.6 3.5-.8 4.7s-.5 3.2-.6 4.5l-1.5 12.4c-.5 3.6-.9 11.1-1.1 20.8l-.2 6.9-1.3.4c-1.4.4-1.4.4-1 1.2 1.4 2.6 6.6 7.1 13.5 11.9 3.7 2.5 6 4.4 6.7 5.4.3.4.6 1.3.7 2.2.1 1.4.1 1.5-.7 2.2-1 1-4.5 2.3-6.9 2.7-2 .3-6.5.5-7.5.4z" fill="#ff8b22"/></svg>