<svg xmlns="http://www.w3.org/2000/svg" width="541" height="344" stroke="#000" stroke-linecap="round" stroke-linejoin="round" fill="#fff" fill-rule="evenodd"><g stroke-linejoin="miter" fill-rule="nonzero"><path d="M519.0982 106.236c0 58.394-47.3408 105.734-105.7339 105.734s-105.732-47.34-105.732-105.734S354.9683.5 413.3643.5s105.7339 47.344 105.7339 105.736z" stroke="red" fill="red"/><path d="M9.3973 331.1739s-13.575-12.6059-7.189-33.4649c0 0 166.2889-91.818 536.929-88.313-.001.0009-357.141 3.478-529.74 121.7779z" stroke="#231f20" fill="#050505"/></g><g stroke="none"><path d="M138.7112 288.922c0-2.366.0261-2.646.275-2.896.151-.1521.367-.3091.478-.346.139-.047.007-.266-.4219-.696-.6-.6041-.625-.662-.625-1.5421l-.0971-2.7019-.0959-1.784h-.5451-.5449l-1.12-2.9881c-1.087-2.8959-1.6311-4.9419-1.7781-6.6759-.789-9.3631-1.139-25.869-.6959-32.798.45-7.044.448-6.7351.065-7.712-2.37-6.072-3.2381-8.184-5.435-13.225-2.5491-5.848-3.0751-6.8981-3.785-7.565-.69-.647-.726-.385-.5171 3.776.255 5.068.118 23.6719-.2079 28.252-.2 2.816-.201 3.604-.006 7.2709l.287 4.6741c.0389.3089.172 1.7959.2989 3.307.2341 2.7949.3041 3.171 1.173 6.271 1.229 4.396 2.565 9.9379 2.656 11.023.105 1.264-.048 2.7839-.554 5.4789l-.3119 1.662-.89.869-.89.8681-.0611 1.9459c-.0409 1.3041-.1269 2.0481-.261 2.2521-.1389.213-.162.4379-.075.7429.0681.2391.4541 1.2661.47 2.1121.0231 1.252 0 1 0 1v1c-.153.535-.9929.36-1.45.358-2.2559-.0131-8.998.009-9.143-.0281-.2469-.062-2.6159-.0349-3.125-.0909-1.2429-.136-1.5439-.2181-1.7569-.479-.1421-.1761-.257-.4381-.257-.5861s-.2121-.6079-.4701-1.0249c-.4209-.676-.472-.8771-.479-1.882l-.006-1.126.875-1.1021c.4811-.6059 1.2571-1.5109 1.725-2.0069.98-1.0441 1.056-1.2091 1.3601-2.946.2969-1.6971.2859-2.404-.0721-4.761-.4519-2.97-.6399-3.521-1.553-4.5441-.429-.4799-.8589-1.0209-.954-1.199-.2609-.4849-.441-4.8299-.394-9.521.04-3.9919-.137-6.6729-.691-10.513-.035-.2479-.201-1.8649-.3669-3.6009l-.3761-3.5931c-.04-.2419-.134-1.4319-.2079-2.6449-.0871-1.432-.2621-2.7211-.496-3.674-.483-1.9671-1.7181-6.572-1.7961-6.701-.035-.055-.9329-3.33-1.9969-7.277l-1.9341-7.178-.023-2.791-.0229-2.791-1.998-.094c-1.0991-.0531-2.0621-.1341-2.1381-.183s-.761-.183-1.5189-.2971c-1.4831-.2279-2.593-.6459-3.082-1.1599-.168-.179-.827-1.103-1.464-2.0511-.9521-1.4209-1.2411-1.993-1.622-3.222-.4161-1.3379-.4571-1.6269-.3901-2.7909l.0741-1.2971h-.6341-.633l-.081-.625c-.0449-.3439-.183-1.8129-.308-3.2699l-.2869-3.085c-.033-.242-.1671-1.433-.298-2.646l-.283-2.57c-.1931-1.59-.2511-2.334-.38-4.924l-.2381-4.285c-.1249-1.867-.146-8.09-.0309-8.715.052-.284.206-1.474.3389-2.646l.307-2.5711c.3311-2.3139.6501-11.025.653-17.826.001-2.8389.218-4.7459 1.1661-10.236.425-2.4639.4379-2.5039.949-2.9479.732-.637 2.89-1.801 5.3789-2.903 6.029-2.668 12.8291-6.073 13.487-6.753.4681-.482.4851-.544.512-1.808.0261-1.217-.0049-1.373-.448-2.223-.574-1.103-1.357-3.208-1.357-3.646 0-.707-.2959-1.207-.771-1.3021-.2539-.0499-.665-.3139-.914-.5859-.5929-.647-1.1119-2.731-1.109-4.45.0021-1.0831.0371-1.228.346-1.4721.3211-.2529.351-.4059.4471-2.359.218-4.3989.5029-5.682 1.6469-7.4019 1.1771-1.771 1.441-2 3.3591-2.918 2.836-1.355 2.9269-1.38 4.824-1.2761 3.9699.218 6.9589 1.2741 8.8389 3.125.8581.8441 1.289 1.648 1.979 3.6931.4491 1.3349.456 1.395.433 4.0529-.0219 2.693-.0219 2.6991.366 3.271.4391.6451.4761 1.1271.2451 3.14-.1301 1.1331-.2041 1.3271-.844 2.2551-1.0691 1.549-1.225 1.911-1.3531 3.148-.0659.629-.234 1.534-.3739 2.01-.39 1.3189-.2571 2.104.555 3.293 1.2279 1.796 1.744 2.0919 4.952 2.832 1.0099.232 4.8779 1.246 8.595 2.252 6.3319 1.713 6.7819 1.856 7.125 2.271.4669.563 1.679 3.335 2.577 5.896.6569 1.8739.707 2.122.89 4.481.1819 2.3449.3519 3.49 1.0819 7.273.3271 1.697 1.279 7.322 1.764 10.431.17 1.091.477 2.855.682 3.92.3671 1.91.371 2.015.314 7.787l-.058 5.851-1.422 8.354-1.423 8.4029c0 .0271-.3719.0691-.8269.094l-.827.0451.002.808c0 .4439.0479 1.7.106 2.7909.1039 1.9501-.0931 4.294-.5181 6.1721-.156.685.122 2.5069 1.9031 12.4879l.8169 4.6281.449 2.4989c.2181 1.165.3901 2.6381.953 8.1511l.4571 4.1149c.246 1.866.3639 34.8421.131 36.8291-.12 1.0309-.3531 1.986-.7481 3.078-.422 1.1599-.5749 1.81-.5749 2.439 0 .4709-.175 1.557-.3901 2.4109-.3689 1.474-.4149 1.564-.867 1.7551s-.471.2279-.3579.725c.0639.289.2939.8859.509 1.325.3699.756.7329 1.1329 3.06 3.1779.7219.637 1.279 2.108 1.279 3.385 0 .8811-.014.9111-.6761 1.521-.453.4141-.8639.6481-1.2349.7111-1.142.182-2.5421 1.2709-2.5421 1.2709l-3.7369.6531-2.37-.065-3.35-.053m78.768 28.514l-2.6081-.375c-1.983-.272-2.3629-.375-3.5119-.946-.707-.353-1.9841-1.151-2.8371-1.775-1.953-1.43-1.9319-1.42-4.2509-2.083-2.3381-.669-3.45-1.158-4.0531-1.788-.43-.448-.4559-.552-.506-1.985-.0559-1.619.1921-2.857.7561-3.777.1609-.263.293-.521.293-.572s-.28-.141-.6241-.195c-.9369-.149-1.04-.322-.8769-1.463.177-1.233.036-2.822-.3731-4.181-.307-1.019-.315-1.272-.2159-6.288.074-3.77.0369-6.744-.1341-10.672-.231-5.29-.3549-25.745-.159-26.063.047-.075.011-3.06-.08-6.629-.126-4.986-.2519-7.279-.542-9.881l-.4559-4.199c-.044-.445-.387-2.063-.763-3.59s-.685-2.896-.685-3.039-.0631-.299-.1391-.346-.106.166-.065.489c.041.315-.0719 1.369-.2499 2.339l-.9241 5.215-.293 1.84c-.1919 1.146-1.628 6.699-3.031 11.733l-1.3769 4.983-1.8901 6.979-2.6089 9.892c-.8351 4.668-1.266 7.504-1.4721 9.703l-.4439 4.562c-.1091 1.054-.206 3.78-.2161 6.059l-.118 8.436c-.0919 3.937-.124 4.312-.384 4.495-.252.178-.2829.432-.2829 2.271 0 1.271-.0691 2.203-.177 2.407-.0981.185-.462.611-.81.949s-1.1351 1.179-1.75 1.869l-1.1181 1.256-.8099-.029c-.7891-.028-.8351-.005-1.772.861-1.503 1.391-2.9791 2.361-3.8871 2.556-.8869.19-2.8509.104-5.245-.229-.8429-.117-1.9269-.25-2.408-.291-1.414-.125-1.8539-.384-2.2599-1.328-.276-.641-.3341-.992-.2691-1.623.099-.959.3581-1.461 1.485-2.875l1.535-1.935c.3801-.479 1.266-1.557 1.9701-2.391 1.2419-1.472 2.269-3.15 2.0969-3.429-.046-.075-.466-.223-.932-.326s-.871-.23-.8979-.279.042-.952.153-2.007c.2619-2.467.3219-14.515.0939-18.479-.0929-1.604-.213-5.398-.267-8.436-.1039-5.799-.1239-5.421.6981-13.497.66-6.479.842-9.438.99-16.104.0849-3.843.313-9.246.473-11.229l.0779-.955-.5059-.212c-.2781-.116-1.081-.65-1.783-1.189-1.5111-1.155-2.066-2.074-2.335-3.854-.1871-1.23-.213-4.938-.054-7.114l.1029-1.396-.6269-.102c-.3461-.055-.8711-.216-1.167-.355l-.539-.258v-8.14l-.099-17.188c-.094-8.761.0559-17.048.4049-22.238l.23-4.064c.1791-4 .413-6.921.782-9.738l.6821-5.368c.4679-3.812.742-5.585.914-5.906.3039-.568 2.448-1.83 8.5879-5.057 4.6911-2.465 6.037-3.226 8.896-5.033 4.025-2.544 4.3981-2.79 4.64-3.067.1281-.147.3171-.922.4301-1.765.1669-1.243.1669-1.601-.001-2.07-.2851-.799-.748-1.412-1.067-1.412-.152 0-.601-.424-1.0171-.959-.607-.781-.826-1.243-1.1819-2.492-.573-2.016-.734-4.184-.354-4.766.313-.477.331-.649.525-4.896.189-4.151.4379-5.04 1.9179-6.857.792-.973 2.384-2.229 2.985-2.357.223-.047 1.061-.332 1.862-.631l1.457-.544 2.5311.089c4.563.159 6.0409.729 8.602 3.313 2.1209 2.141 2.5049 2.881 2.513 4.833.002.763-.087 2.322-.201 3.464-.2031 2.055-.2021 2.083.137 2.658.3269.554.3379.68.2369 2.754-.1679 3.413-.723 5.317-1.55 5.317-.4099 0-.566.377-.8229 1.994-.299 1.882-.375 3.606-.181 4.192.1969.598 1.3039 1.683 3.1529 3.092.982.749 1.5591 1 6.825 2.968 3.1631 1.183 7.095 2.763 8.739 3.512 2.517 1.147 3.0331 1.438 3.2711 1.848.3669.629 2.3469 7.521 2.476 8.62.099.832.4 3.042.7029 5.138l.2281 1.687c.04.337.177 1.338.3049 2.224l.383 2.685c.4101 2.921.8621 11.988 1.149 23.083l.3861 14.339.253 11.076.099 5.707-.446.172c-.2461.096-.8481.145-1.338.109-.6991-.049-.917-.01-1.0141.18-.068.133-.1679 1.02-.224 1.973-.068 1.168-.2009 1.992-.411 2.53-.1709.438-.4399 1.487-.5989 2.332-.5281 2.813-.5751 2.927-1.856 4.512-1.6171 2-2.0791 2.414-4.2081 3.771l-1.9589 1.287c-.065.063-.036 2.063.0659 4.442.2271 5.313-.036 19.604-.4159 22.542l-.465 3.63c-.359 2.821-.6461 4.745-.98 6.595l-.541 3.145-.461 2.685c-.125.675-.293 1.849-.375 2.606l-.859 7.132c-.263 2.058-.5 6.424-.651 12.022l-.108 3.974-.7281.212c-.8029.232-.8039.234-.5499.712.7909 1.488 3.7829 4.123 7.789 6.86 2.1249 1.451 3.4689 2.52 3.8919 3.091.1861.253.3341.748.3771 1.264.0659.793.04.876-.412 1.298-.586.549-2.613 1.344-3.988 1.566-1.126.177-3.715.293-4.304.188z" fill-rule="nonzero" fill="#353535"/><path d="M298.7753 342.085c-.254-.098-.979-.8751-1.614-1.728-.929-1.244-1.398-1.692-2.388-2.2721-1.515-.887-2.1369-1.5219-2.533-2.5929-.45-1.214-.404-3.467.1019-4.948.2801-.822.3412-1.2111.195-1.26-.3659-.121-.9399-.83-1.3959-1.72-.43-.8411-.443-1.005-.559-6.8851-.137-6.9859.201-13.5619.956-18.6039 1.3511-9.0101 1.544-10.713 1.543-13.679-.001-3.751-.413-15.521-.6341-18.086l-.1949-2.479-.1881-2.369-.553-6.903c-.0488-.656-.1699-1.854-.2669-2.662l-.466-4.132-.367-3.305c-.044-.354-.2099-1.883-.367-3.396l-.369-3.396c-.0879-.687-.466-4.3611-.99-9.6411-.23-2.313-.988-7.08-1.488-9.3629-.6461-2.951-1.494-5.839-1.8241-6.207-.0729-.082-.1879 2.148-.2539 4.957l-1.1679 35.401c-.2901 6.875-.3851 23.427-.1471 25.8959l.563 6.7871c.06.81.271 2.2539.473 3.2149l1.631 7.807c2.012 9.6251 2.066 10.5291 1.2719 21.2041-.3639 4.894-.39 5.062-.8239 5.453l-.447.405.464.684c.6351.935.699 1.297.598 3.343-.144 2.9029-.9419 4.286-2.625 4.539-1.217.1829-1.379.383-1.633 2.019-.264 1.689-.396 2.047-.849 2.289-.182.098-1.514.439-2.962.7629-2.492.5551-2.876.5901-7.223.6591l-4.59.072-.77-.66c-.899-.774-1.342-2-1.342-3.7201 0-.9669.1-1.2539.948-2.7259 1.8021-3.127 3.455-6.568 3.264-6.799-.099-.118-.817-.256-1.599-.303-2.808-.1721-4.8449-1.264-5.064-2.7171-.054-.354-.228-3.1599-.3879-6.241l-.8331-15.6979-.913-17.168c-.4179-8.029-.49-9.055-1.488-21.299l-.9169-10.007c-.3811-2.198-2.4911-11.151-3.2881-13.954-.891-3.135-2.305-9.992-4.238-20.564-.488-2.668-.468-2.6191-1.146-2.752-.941-.188-1.563-.474-1.68-.775-.117-.307.126-2.561.539-5.011l.643-4.039.457-2.963c.053-.323-.043-.595-.286-.814-.604-.547-1.957-2.717-3.874-6.215-2.151-3.928-2.118-3.786-2.718-11.675l-1.4789-17.652c-.3482-1.818-.7341-8.646-.8521-15.031-.129-7.079-.218-6.069 1.5769-18.176l.744-5.049c1.42-9.688 2.0031-12.357 3.2321-14.8.958-1.905 2.0621-2.65 6.229-4.205 5.238-1.954 14.05-5.641 15.164-6.344.432-.272.994-.948 1.548-1.86.479-.788 1.611-2.247 2.5171-3.243s1.7519-2.071 1.8809-2.388.284-1.754.346-3.192l.113-2.6161-.731-1.1319c-.403-.623-.813-1.433-.912-1.799-.128-.473-.414-.833-.982-1.233-.9829-.693-1.717-1.626-1.852-2.357-.141-.755-.4441-3.239-.572-4.68-.305-3.428-.438-4.379-.699-5.05-.558-1.426-.314-8.133.376-10.374.271-.879.569-1.266 2.305-2.985 1.097-1.086 2.604-2.388 3.353-2.892 1.141-.769 1.494-.917 2.1989-.917.5321 0 1.1722-.168 1.7411-.457 2.761-1.398 4.956-1.896 6.571-1.491.58.146 1.5091.317 2.063.382 1.9171.224 4.104.672 4.6469.953.7161.37 5.3441 4.896 5.867 5.7389.4461.7171.4411.6491.5471 8.9341l.047 3.687.537.778.539.779-.2251 2.858c-.3499 4.452-.4859 4.912-2.1429 7.125-.5289.707-1.016 1.533-1.079 1.836s.011 1.294.168 2.204c.233 1.354.4419 1.915 1.151 3.108.975 1.638 2.508 3.375 3.941 4.466 1.161.884 7.186 3.553 9.458 4.191l3.257.91c9.9811 2.776 10.23 2.863 11.305 3.937.7861.786.895 1.005 1.258 2.547.979 4.187 1.603 10.698 2.582 27.111.729 12.231.771 13.683.692 24.604-.082 11.367-.118 11.974-1.0689 17.994-1.2671 8.015-2.5611 12.015-5.0931 15.747-.498.73-1.3791 2.07-1.96 2.977l-1.058 1.646.481 4.779c.267 2.6289.482 5.709.48 6.845l-.0011 2.065h-.542c-.2979 0-.943.086-1.4339.19l-.893.1899.034 3.5271c.062 6.489-.218 12.3959-.748 15.828-.266 1.719-.562 4.278-.659 5.692-.229 3.373-.429 5.644-1.078 12.395-.75 7.788-.898 11.989-1.051 29.652l.0159 32.971c.1241 7.8589.1081 10.298-.0619 10.616-.269.502-1.298.959-3.545 1.574-2.7801.7609-2.803 1.083-.313 4.564 2.076 2.9039 3.074 4.807 3.236 6.1679.137 1.1551-.08 1.5101-1.627 2.6781-1.593 1.201-2.469 1.537-4.8131 1.848-2.2469.298-8.1939.338-8.9139.063z" fill="#ff8b22" fill-rule="nonzero"/><path d="M408.2474 275.5704c-1.4549-.183-4.2549-.763-4.523-.937-.1729-.112-.4359-.479-.5839-.815-.244-.556-.256-.686-.1041-1.357.159-.719.2561-.838 2.724-3.354 2.534-2.584 3.801-4.162 4.438-5.528.278-.597.3211-.89.3211-2.177 0-1.031-.0501-1.527-.165-1.619-.093-.073-.618-.145-1.1691-.157s-1.0449-.068-1.0939-.118c-.15-.158-.642-5.135-.8351-8.47l-.253-3.279c-.065-.106-.3159-3.033-.8239-9.601l-.727-5.813-.672-4.478c-.2951-2.643-.4541-3.28-2.0981-8.355l-4.7329-13.944c-.052-.061-.1341 1.084-.183 2.541l-.22 3.918-.2601 2.808-.478 5.146-.459 7.088-.5449 18.063-.262 5.881s-.218.578-.341.652c-.7061.422-.7521.523-1.2061 2.68l-.4519 2.547c-.004.512-.2671.754-1.207 1.12l-1.4711.646c-.7099.349-.813.359-3.0069.359-1.5701 0-2.443-.057-2.826-.185-.516-.17-.604-.16-1.27.147-.396.182-1.259.737-1.921 1.233-2.0861 1.563-2.329 1.644-6.6731 2.146-3.095.358-3.826.321-5.524-.287-.766-.272-1.2259-1.039-1.2709-2.113-.031-.749-.017-.784.502-1.238s4.456-2.447 7.188-3.642c.718-.313 1.454-.688 1.638-.832s.7339-.845 1.225-1.556l1.369-1.891c.263-.328.461-.693.4399-.813s.09-.752.2431-1.408l1.9209-8.813 1.221-9.893c.0951-1.042-.2389-6.484-.526-8.556l-.807-5.748-1.1549-8.287c-.794-5.744-2.011-12.875-2.9191-17.11l-.804-3.741-.2849-4.413c-.289-4.491-.407-10.003-.225-10.649.0919-.327.022-.412-.812-1.021-1.422-1.033-2.976-3.273-3.589-5.173l-.346-1.069-.128-8.153c-.188-11.958.078-18.083 1.1059-25.399 1.0621-7.551 1.2781-8.442 2.31-9.391.734-.68 1.6291-1.27 4.813-3.183 2.9381-1.767 3.8831-2.544 5.4811-4.51 1.046-1.288 1.2759-1.825 1.284-2.981.0049-.782-.2211-1.344-.9041-2.259-.5879-.787-1.2849-2.159-1.4509-2.856-.0461-.193-.131-.412-.186-.485-.2971-.387-.694-2.351-1.0581-5.213l-.6179-4.546c-.3081-1.936-.282-3.669.0639-4.768.4681-1.475 1.958-3.201 3.645-4.215 1.214-.731 1.9921-.874 5.1441-.941l2.829-.06 1.114.487c2.647 1.158 2.936 1.325 3.727 2.171 1.739 1.859 2.099 2.727 2.278 5.499.094 1.423.18 1.968.333 2.122.1689.17.196.489.155 1.76-.0631 1.887-.354 2.998-1.2951 4.934l-.6749 1.388v1.389 1.388l1.438 1.514c.789.832 1.828 1.991 2.307 2.574l.871 1.062 3.5759 1.095c5.6561 1.73 6.3721 1.98 8.021 2.788 1.3391.656 1.6281.857 2.0831 1.45.2909.379.626.899.743 1.156.3099.674 1.642 7.575 1.9479 10.093.7751 6.374 1.369 12.107 1.4171 13.702.03.993.118 2.242.197 2.777.1489 1.021.193 3.204.07 3.604-.039.129-.196 1.189-.349 2.356s-.373 2.307-.489 2.534c-.496.958-5.129 7.821-6.063 8.98l-.4321.536.0801 1.336c.0429.735.417 3.653.8289 6.484.654 4.485.768 5.557.873 8.354.0661 1.765.26 4.347.4321 5.736l.3099 2.526-.511.2c-.5939.232-.6759.45-.9059 2.415-.278 2.359-.095 4.578.531 6.438.1379.408.3389 1.279.447 1.938l2.422 14.098.926 5.349c.26 1.581.6479 3.476.867 4.211.968 3.267.951 3.128.947 7.709l-.128 10.271-.143 13.101-.02 7.019.4149 1.27c.3201.986.4461 1.701.567 3.208.0851 1.065.112 2.219.0611 2.563-.122.802-.685 1.572-1.5821 2.173l-1.0009.688c-.1621.12-.54.229-.8381.244-.509.026-.5979.097-1.3959 1.104-1.027 1.299-2.0971 2.355-2.818 2.785-.5931.354-2.406.969-4.334 1.475-1.2421.321-2.852.484-3.7411.371zm66.9879-12.6844c-1.146-.365-1.403-.399-2.6441-.354-.863.03-1.4439-.003-1.5629-.096-.104-.08-.2261-.477-.271-.88-.165-1.451-.3301-2.321-.465-2.456-.08-.08-.1381-.834-.1381-1.782v-1.646h-.4649c-.742 0-.89-.358-.968-2.368-.0531-1.401-.137-1.937-.4651-2.979-.4739-1.506-.501-2.129-.13-2.944.153-.336.3131-.848.3601-1.137.081-.518.0589-.557-.941-1.599l-1.025-1.071.081-2.205.2-3.021c.078-.546.0639-1.128-.0431-1.7591-.1329-.7809-.2449-1.0369-.655-1.4899l-.5049-.582c-.01-.037-.107-.91-.5071-4.543l-.3479-2.94c-.041-.239-.1311-1.181-.2-2.09-.1211-1.579-.1501-1.69-.6501-2.54-.72-1.2161-.6349-.82-1.0169-4.828-.109-1.146-.4639-3.384-.797-5.013l-1.479-9.358c-.348-2.701-.5811-3.979-1.052-5.748l-2.096-8.767c-.006-.358-.23-.587-.4231-.426-.2229.182-.0789 5.726.23 9.058l.8511 10.628.5469 8.089.783 2.941c.4861 1.782.714 2.911.868 4.366l.6961 5.1459c.4649 3.0561.4819 3.2881.4129 5.7241l-.0709 2.539.54 1.673.5389 1.672-.0559 2.069c-.048 1.787-.096 2.149-.341 2.621-.157.303-.262.662-.231.803l.27 1.167c.1879.8.197 1.301.0739 4.075l-.0549 3.488c.07.264-.006.403-.392.734l-.48.413-.2 2.565c-.154 1.979-.2641 2.705-.4769 3.188l-.2751.624-1.742-.048c-1.539-.043-1.748-.021-1.812.18-.0391.122-.2811.409-.538.634l-.466.41h-3.517c-1.936 0-4.347-.04-5.356-.089l-1.842-.087-.257-.415c-.2141-.346-.24-.559-.1681-1.28.1351-1.338.6381-2.2 1.8851-3.244 1.1639-.975 2.994-2.821 3.222-3.253.093-.174.119-.638.069-1.227-.069-.828-.1151-.956-.372-1.021-.8761-.218-1.082-2.908-.522-6.785l.207-1.427-.529-.913c-.291-.501-.8181-1.724-1.172-2.717l-.643-1.805.0311-2.213.0308-2.211-.6839-2.394c-.659-2.284-.693-2.48-.7071-4.07-.013-1.257.0411-1.8521.2151-2.396.389-1.213.3199-1.752-.354-2.785l-.591-.9-.3501-2.539-.615-4.41-.5259-4.278-.6041-4.206c-.4859-2.564-1.6569-7.341-1.9369-7.893-.13-.256-.521-1.8201-.869-3.476l-1.549-6.852c-.1091-.407-.196-.5-.4641-.5-.1829 0-.4439.135-.5839.301l-.5661.674c-.2509.298-.4429.38-.9549.409-.487.027-.727.121-1.0021.398-1.178 1.174-1.4829 1.35-2.465 1.403-.6189.036-1.2229-.024-1.7899-.178-.782-.213-.938-.318-1.812-1.253-1.5101-1.614-1.447-1.428-1.447-4.342 0-2.354-.019-2.532-.2681-2.74-.264-.219-.2689-.413-.3-13.121-.0349-14.648-.0059-15.366 1.1161-26.2l.52-5.815.4499-5.146.276-2.941c.495-6.524.622-7.299 1.3511-8.3.547-.754 3.3959-3.2921 4.5709-4.074.6041-.403 2.0821-1.323 3.277-2.042 3.2591-1.961 4.082-2.532 5.141-3.56l.9631-.938-.1131-1.458-.112-1.458-.6689-.614c-.8171-.751-1.194-1.375-1.3051-2.158-.0989-.702-.2249-1.063-.8219-2.38-.8711-1.919-1.121-3.144-1.242-6.081-.1601-3.851.0979-5.08 1.3949-6.678.3121-.383.604-.846.651-1.03.1581-.621.5911-1.155 1.8271-2.264 1.461-1.31 2.148-1.644 3.982-1.936 1.24-.197 1.533-.198 3.2699-.012 2.5781.276 3.1271.451 3.8771 1.238.3329.349.764.743.956.876s.902.975 1.577 1.872 1.2739 1.664 1.336 1.705c.287.195.776 1.013.776 1.295 0 .172.102.506.2239.742s.3631 1.145.5371 2.02c.3099 1.544.3119 1.623.1039 2.64-.255 1.255-1.013 3.548-1.3289 4.034-.16.245-.2511.753-.3041 1.714-.0739 1.344-.0839 1.376-.565 1.909-.7709.853-.9379 1.165-.9379 1.748 0 .465.0809.622.567 1.087 1.667 1.596 2.726 2.11 7.977 3.877 4.932 1.66 10.1879 3.605 10.74 3.974.773.519 1.247 1.4 1.49 2.781.5161 2.919.853 4.113 2.692 9.55 2.9379 8.677 3.76 11.2989 3.923 12.517.0809.604.27 2.754.4169 4.775l.3391 4.146c.117.77-.1911 6.985-.468 9.357l-.472 4.277c-.54 5.162-1.8111 14.48-1.997 14.67-.041.039-.2101.145-.377.231s-.292.221-.276.295c.0549.274-.235 2.659-.374 3.082-.0971.295-.328.546-.72.774-.599.35-1.808 1.551-1.808 1.793 0 .076-.2091.369-.465.65-.324.359-.8241.67-1.671 1.032l-1.207.517v2.346c0 7.345.825 18.189 1.874 24.674.643 3.965.684 4.138 1.1879 5.059.483.883 1.3351 3.434 2.0071 6.02.53 2.037.709 5.185.7359 12.979.0211 6.102.063 7.466.2631 8.811.129.875.338 3.002.465 4.73l.229 3.143-.573.252c-.5371.238-.575.289-.575.782 0 .487.094.622 1.2339 1.765 1.0061 1.006 1.3841 1.506 2.0111 2.654.7559 1.387 1.136 2.661.958 3.219-.112.354-.938.769-2.2541 1.127-1.0589.289-1.568.339-3.9539.39l-2.7411.06-1.2679-.406z" fill-rule="nonzero" fill="#353535"/></g></svg>